<mxfile host="app.diagrams.net" agent="Mozilla/5.0 (Windows NT 10.0; Win64; x64) AppleWebKit/537.36 (KHTML, like Gecko) Chrome/133.0.0.0 Safari/537.36" version="26.0.15">
  <diagram name="Page-1" id="eFnRYutm7QuCERlk3ahz">
    <mxGraphModel dx="1222" dy="686" grid="1" gridSize="10" guides="1" tooltips="1" connect="1" arrows="1" fold="1" page="1" pageScale="1" pageWidth="850" pageHeight="1100" math="0" shadow="0">
      <root>
        <mxCell id="0" />
        <mxCell id="1" parent="0" />
        <mxCell id="i6uWURECUpU4FRqGuYxU-46" value="" style="html=1;overflow=block;blockSpacing=1;whiteSpace=wrap;container=1;pointerEvents=0;collapsible=0;recursiveResize=0;fontSize=13;spacing=0;fillOpacity=0;rounded=1;absoluteArcSize=1;arcSize=9;strokeWidth=NaN;lucidId=e.MUwLjLPHLZ;" parent="1" vertex="1">
          <mxGeometry width="480" height="360" as="geometry" />
        </mxCell>
        <mxCell id="i6uWURECUpU4FRqGuYxU-47" value="" style="html=1;overflow=block;blockSpacing=1;whiteSpace=wrap;container=1;pointerEvents=0;collapsible=0;recursiveResize=0;fontSize=13;spacing=0;strokeOpacity=100;fillOpacity=100;rounded=1;absoluteArcSize=1;arcSize=9;strokeWidth=1.5;lucidId=NrNUH4_TgrsO;" parent="1" vertex="1">
          <mxGeometry x="960" y="160" width="240" height="240" as="geometry" />
        </mxCell>
        <mxCell id="i6uWURECUpU4FRqGuYxU-48" value="" style="html=1;overflow=block;blockSpacing=1;whiteSpace=wrap;container=1;pointerEvents=0;collapsible=0;recursiveResize=0;fontSize=13;spacing=0;strokeOpacity=100;fillOpacity=100;rounded=1;absoluteArcSize=1;arcSize=9;strokeWidth=1.5;lucidId=8uNUO0RbQq4T;" parent="1" vertex="1">
          <mxGeometry x="1320" y="160" width="240" height="240" as="geometry" />
        </mxCell>
        <mxCell id="Pc0eAualvhyLQVjC87Ax-3" value="Load Balancer Nginx" style="html=1;overflow=block;blockSpacing=1;whiteSpace=wrap;shape=process;fontSize=16.7;spacing=3.8;rounded=1;absoluteArcSize=1;arcSize=9;strokeWidth=NaN;lucidId=8uNUQ~DVaDvG;" vertex="1" parent="i6uWURECUpU4FRqGuYxU-48">
          <mxGeometry x="60" y="140" width="120" height="65" as="geometry" />
        </mxCell>
        <mxCell id="i6uWURECUpU4FRqGuYxU-49" value="" style="pointerEvents=0;fontStyle=0;html=1;whiteSpace=wrap;container=1;collapsible=0;childLayout=stackLayout;resizeParent=1;dropTarget=0;horizontalStack=0;fontSize=13;spacing=0;rounded=1;absoluteArcSize=1;arcSize=9;horizontal=0;strokeWidth=NaN;" parent="1" vertex="1">
          <mxGeometry y="480" width="640" height="410" isRotated="1" as="geometry" />
        </mxCell>
        <mxCell id="i6uWURECUpU4FRqGuYxU-50" value="GIT" style="swimlane;html=1;whiteSpace=wrap;connectable=0;fontStyle=0;startSize=30;dropTarget=0;rounded=0;horizontal=0;spacing=0;strokeColor=#unset;fillColor=#unset;strokeWidth=NaN;container=1;pointerEvents=0;collapsible=0;recursiveResize=0;fontSize=16.7;" parent="i6uWURECUpU4FRqGuYxU-49" vertex="1">
          <mxGeometry width="640" height="410" as="geometry" />
        </mxCell>
        <mxCell id="i6uWURECUpU4FRqGuYxU-51" value="" style="html=1;overflow=block;blockSpacing=1;whiteSpace=wrap;container=1;pointerEvents=0;collapsible=0;recursiveResize=0;fontSize=13;spacing=0;strokeOpacity=100;fillOpacity=100;rounded=1;absoluteArcSize=1;arcSize=9;strokeWidth=1.5;lucidId=nyNUVAjF-uIB;" parent="1" vertex="1">
          <mxGeometry x="1700" y="480" width="240" height="160" as="geometry" />
        </mxCell>
        <mxCell id="i6uWURECUpU4FRqGuYxU-68" value="APP" style="html=1;overflow=block;blockSpacing=1;whiteSpace=wrap;shape=process;fontSize=16.7;spacing=3.8;rounded=1;absoluteArcSize=1;arcSize=9;strokeWidth=NaN;lucidId=nyNUW..0iON4;fillColor=#d5e8d4;strokeColor=#82b366;" parent="i6uWURECUpU4FRqGuYxU-51" vertex="1">
          <mxGeometry x="60" y="55" width="120" height="60" as="geometry" />
        </mxCell>
        <mxCell id="i6uWURECUpU4FRqGuYxU-52" value="" style="html=1;overflow=block;blockSpacing=1;whiteSpace=wrap;container=1;pointerEvents=0;collapsible=0;recursiveResize=0;fontSize=13;spacing=0;strokeOpacity=100;fillOpacity=100;rounded=1;absoluteArcSize=1;arcSize=9;strokeWidth=1.5;lucidId=ryNUsd05EfbU;" parent="1" vertex="1">
          <mxGeometry x="1320" y="480" width="240" height="160" as="geometry" />
        </mxCell>
        <mxCell id="i6uWURECUpU4FRqGuYxU-71" value="APP" style="html=1;overflow=block;blockSpacing=1;whiteSpace=wrap;shape=process;fontSize=16.7;spacing=3.8;rounded=1;absoluteArcSize=1;arcSize=9;strokeWidth=NaN;lucidId=ryNU5dK9rB8r;fillColor=#e1d5e7;strokeColor=#9673a6;" parent="i6uWURECUpU4FRqGuYxU-52" vertex="1">
          <mxGeometry x="60" y="60" width="120" height="60" as="geometry" />
        </mxCell>
        <mxCell id="i6uWURECUpU4FRqGuYxU-53" value="" style="html=1;overflow=block;blockSpacing=1;whiteSpace=wrap;container=1;pointerEvents=0;collapsible=0;recursiveResize=0;fontSize=13;spacing=0;strokeOpacity=100;fillOpacity=100;rounded=1;absoluteArcSize=1;arcSize=9;strokeWidth=1.5;lucidId=wyNUC7PQDIvv;" parent="1" vertex="1">
          <mxGeometry x="960" y="480" width="240" height="160" as="geometry" />
        </mxCell>
        <mxCell id="i6uWURECUpU4FRqGuYxU-54" value="NODE&#xa;APP" style="html=1;overflow=block;blockSpacing=1;whiteSpace=wrap;fontSize=16.7;spacing=9;strokeOpacity=100;fillOpacity=100;rounded=1;absoluteArcSize=1;arcSize=9;strokeWidth=1.5;lucidId=a8MUeTz8p9TK;" parent="1" vertex="1">
          <mxGeometry x="30" y="60" width="120" height="240" as="geometry" />
        </mxCell>
        <mxCell id="i6uWURECUpU4FRqGuYxU-55" value="Git Flow" style="html=1;overflow=block;blockSpacing=1;whiteSpace=wrap;fontSize=16.7;spacing=9;rounded=1;absoluteArcSize=1;arcSize=9;strokeWidth=NaN;lucidId=i1MURsiiHGRV;" parent="1" vertex="1">
          <mxGeometry x="420" y="300" width="60" height="60" as="geometry" />
        </mxCell>
        <mxCell id="i6uWURECUpU4FRqGuYxU-56" value="Rendering strategy:&#xa;SSR" style="html=1;overflow=block;blockSpacing=1;whiteSpace=wrap;fontSize=16.7;spacing=0;rounded=1;absoluteArcSize=1;arcSize=9;strokeWidth=NaN;lucidId=CbNU92kOoKJf;fillColor=none;strokeColor=none;" parent="1" vertex="1">
          <mxGeometry x="23" y="60" width="135" height="45" as="geometry" />
        </mxCell>
        <mxCell id="i6uWURECUpU4FRqGuYxU-57" value="DB" style="html=1;overflow=block;blockSpacing=1;whiteSpace=wrap;fontSize=16.7;spacing=9;strokeOpacity=100;fillOpacity=100;rounded=1;absoluteArcSize=1;arcSize=9;strokeWidth=1.5;lucidId=zeNUaOF2~5Nd;" parent="1" vertex="1">
          <mxGeometry x="240" y="60" width="120" height="120" as="geometry" />
        </mxCell>
        <mxCell id="i6uWURECUpU4FRqGuYxU-58" value="Test APP" style="html=1;overflow=block;blockSpacing=1;whiteSpace=wrap;fontSize=16.7;spacing=9;strokeOpacity=100;fillOpacity=100;rounded=1;absoluteArcSize=1;arcSize=9;strokeWidth=1.5;lucidId=vgNUTcFt1CZj;" parent="1" vertex="1">
          <mxGeometry x="360" y="180" width="60" height="60" as="geometry" />
        </mxCell>
        <mxCell id="i6uWURECUpU4FRqGuYxU-59" value="" style="html=1;jettySize=18;whiteSpace=wrap;fontSize=13;strokeOpacity=100;strokeWidth=0.8;rounded=1;arcSize=12;edgeStyle=orthogonalEdgeStyle;startArrow=none;endArrow=block;endFill=1;exitX=-0.012;exitY=0.5;exitPerimeter=0;entryX=0.5;entryY=1.006;entryPerimeter=0;lucidId=shNUDEfDZnE-;" parent="1" source="i6uWURECUpU4FRqGuYxU-58" target="i6uWURECUpU4FRqGuYxU-57" edge="1">
          <mxGeometry width="100" height="100" relative="1" as="geometry">
            <Array as="points" />
          </mxGeometry>
        </mxCell>
        <mxCell id="i6uWURECUpU4FRqGuYxU-60" value="HTTP" style="text;html=1;resizable=0;labelBackgroundColor=default;align=center;verticalAlign=middle;fontStyle=1;fontColor=#333333;fontSize=13.3;" parent="i6uWURECUpU4FRqGuYxU-59" vertex="1">
          <mxGeometry x="-0.296629745310953" relative="1" as="geometry" />
        </mxCell>
        <mxCell id="i6uWURECUpU4FRqGuYxU-61" value="" style="html=1;jettySize=18;whiteSpace=wrap;fontSize=13;strokeOpacity=100;strokeWidth=0.8;rounded=1;arcSize=12;edgeStyle=orthogonalEdgeStyle;startArrow=none;endArrow=block;endFill=1;exitX=1.006;exitY=0.5;exitPerimeter=0;entryX=-0.006;entryY=0.5;entryPerimeter=0;lucidId=yiNUCgNhX0y_;" parent="1" source="i6uWURECUpU4FRqGuYxU-54" target="i6uWURECUpU4FRqGuYxU-57" edge="1">
          <mxGeometry width="100" height="100" relative="1" as="geometry">
            <Array as="points" />
          </mxGeometry>
        </mxCell>
        <mxCell id="i6uWURECUpU4FRqGuYxU-62" value="HTTP" style="text;html=1;resizable=0;labelBackgroundColor=default;align=center;verticalAlign=middle;fontStyle=1;fontColor=#333333;fontSize=13.3;" parent="i6uWURECUpU4FRqGuYxU-61" vertex="1">
          <mxGeometry relative="1" as="geometry" />
        </mxCell>
        <mxCell id="i6uWURECUpU4FRqGuYxU-63" value="P: 3000" style="html=1;overflow=block;blockSpacing=1;whiteSpace=wrap;fontSize=16.7;spacing=0;strokeOpacity=100;fillOpacity=100;rounded=1;absoluteArcSize=1;arcSize=9;strokeWidth=1.5;lucidId=hjNUia~z0Omy;fillColor=none;strokeColor=none;" parent="1" vertex="1">
          <mxGeometry y="240" width="180" height="45" as="geometry" />
        </mxCell>
        <mxCell id="i6uWURECUpU4FRqGuYxU-65" value="JENKINS MASTER" style="html=1;overflow=block;blockSpacing=1;whiteSpace=wrap;shape=process;fontSize=16.7;spacing=3.8;rounded=1;absoluteArcSize=1;arcSize=9;strokeWidth=NaN;lucidId=iuNUoXlNMMTP;" parent="1" vertex="1">
          <mxGeometry x="1020" y="180" width="120" height="60" as="geometry" />
        </mxCell>
        <mxCell id="i6uWURECUpU4FRqGuYxU-66" value="localstack ECR " style="html=1;overflow=block;blockSpacing=1;whiteSpace=wrap;shape=process;fontSize=16.7;spacing=3.8;rounded=1;absoluteArcSize=1;arcSize=9;strokeWidth=NaN;lucidId=xuNUCCFulLaC;" parent="1" vertex="1">
          <mxGeometry x="1020" y="300" width="120" height="60" as="geometry" />
        </mxCell>
        <mxCell id="i6uWURECUpU4FRqGuYxU-67" value="JENKINS Agentes" style="html=1;overflow=block;blockSpacing=1;whiteSpace=wrap;shape=process;fontSize=16.7;spacing=3.8;rounded=1;absoluteArcSize=1;arcSize=9;strokeWidth=NaN;lucidId=8uNUQ~DVaDvG;" parent="1" vertex="1">
          <mxGeometry x="1380" y="180" width="120" height="60" as="geometry" />
        </mxCell>
        <mxCell id="i6uWURECUpU4FRqGuYxU-74" value="APP" style="html=1;overflow=block;blockSpacing=1;whiteSpace=wrap;shape=process;fontSize=16.7;spacing=3.8;rounded=1;absoluteArcSize=1;arcSize=9;strokeWidth=NaN;lucidId=wyNUaIjTV-_K;fillColor=#fff2cc;strokeColor=#d6b656;" parent="1" vertex="1">
          <mxGeometry x="1020" y="540" width="120" height="60" as="geometry" />
        </mxCell>
        <mxCell id="i6uWURECUpU4FRqGuYxU-77" value="" style="html=1;overflow=block;blockSpacing=1;whiteSpace=wrap;ellipse;fontSize=13;spacing=3.8;rounded=1;absoluteArcSize=1;arcSize=9;strokeWidth=NaN;lucidId=iENUfbThD3mN;fillColor=#e1d5e7;strokeColor=#9673a6;" parent="1" vertex="1">
          <mxGeometry x="150" y="690" width="30" height="30" as="geometry" />
        </mxCell>
        <mxCell id="i6uWURECUpU4FRqGuYxU-78" value="V1.0.1" style="html=1;overflow=block;blockSpacing=1;whiteSpace=wrap;ellipse;fontSize=16.7;spacing=3.8;rounded=1;absoluteArcSize=1;arcSize=9;strokeWidth=NaN;lucidId=DENUtOGv.7ci;fillColor=#fff2cc;strokeColor=#d6b656;" parent="1" vertex="1">
          <mxGeometry x="150" y="765" width="30" height="30" as="geometry" />
        </mxCell>
        <mxCell id="i6uWURECUpU4FRqGuYxU-79" value="" style="html=1;overflow=block;blockSpacing=1;whiteSpace=wrap;ellipse;fontSize=13;spacing=3.8;rounded=1;absoluteArcSize=1;arcSize=9;strokeWidth=NaN;lucidId=FENUEC8hakrf;" parent="1" vertex="1">
          <mxGeometry x="289" y="620" width="30" height="30" as="geometry" />
        </mxCell>
        <mxCell id="i6uWURECUpU4FRqGuYxU-80" value="MAIN" style="html=1;overflow=block;blockSpacing=1;whiteSpace=wrap;fontSize=16.7;spacing=0;rounded=1;absoluteArcSize=1;arcSize=9;strokeWidth=NaN;lucidId=yFNUOSTIfbic;fillColor=#fff2cc;strokeColor=#d6b656;" parent="1" vertex="1">
          <mxGeometry x="75" y="769" width="60" height="23" as="geometry" />
        </mxCell>
        <mxCell id="i6uWURECUpU4FRqGuYxU-81" value="Dev" style="html=1;overflow=block;blockSpacing=1;whiteSpace=wrap;fontSize=16.7;spacing=0;rounded=1;absoluteArcSize=1;arcSize=9;strokeWidth=NaN;lucidId=8FNU9b9Pp-xK;fillColor=#e1d5e7;strokeColor=#9673a6;" parent="1" vertex="1">
          <mxGeometry x="75" y="694" width="60" height="23" as="geometry" />
        </mxCell>
        <mxCell id="i6uWURECUpU4FRqGuYxU-82" value="Feature:&#xa;Fr-5 " style="html=1;overflow=block;blockSpacing=1;whiteSpace=wrap;fontSize=16.7;spacing=0;rounded=1;absoluteArcSize=1;arcSize=9;strokeWidth=NaN;lucidId=UGNUexd0UVxA;" parent="1" vertex="1">
          <mxGeometry x="71" y="620" width="75" height="45" as="geometry" />
        </mxCell>
        <mxCell id="i6uWURECUpU4FRqGuYxU-83" value="V1.0.2" style="html=1;overflow=block;blockSpacing=1;whiteSpace=wrap;ellipse;fontSize=16.7;spacing=3.8;rounded=1;absoluteArcSize=1;arcSize=9;strokeWidth=NaN;lucidId=.HNUBmk7pHcR;fillColor=#fff2cc;strokeColor=#d6b656;" parent="1" vertex="1">
          <mxGeometry x="248" y="765" width="30" height="30" as="geometry" />
        </mxCell>
        <mxCell id="i6uWURECUpU4FRqGuYxU-84" value="V1.1.0" style="html=1;overflow=block;blockSpacing=1;whiteSpace=wrap;ellipse;fontSize=16.7;spacing=3.8;rounded=1;absoluteArcSize=1;arcSize=9;strokeWidth=NaN;lucidId=cINU4dtvGn5E;fillColor=#fff2cc;strokeColor=#d6b656;" parent="1" vertex="1">
          <mxGeometry x="590" y="765" width="30" height="30" as="geometry" />
        </mxCell>
        <mxCell id="i6uWURECUpU4FRqGuYxU-85" value="" style="html=1;overflow=block;blockSpacing=1;whiteSpace=wrap;ellipse;fontSize=13;spacing=3.8;rounded=1;absoluteArcSize=1;arcSize=9;strokeWidth=NaN;lucidId=gINUmg_q8N2p;" parent="1" vertex="1">
          <mxGeometry x="401" y="620" width="30" height="30" as="geometry" />
        </mxCell>
        <mxCell id="i6uWURECUpU4FRqGuYxU-86" value="" style="html=1;overflow=block;blockSpacing=1;whiteSpace=wrap;ellipse;fontSize=13;spacing=3.8;rounded=1;absoluteArcSize=1;arcSize=9;strokeWidth=NaN;lucidId=zJNUFY-K8TfI;fillColor=#e1d5e7;strokeColor=#9673a6;" parent="1" vertex="1">
          <mxGeometry x="236" y="690" width="30" height="30" as="geometry" />
        </mxCell>
        <mxCell id="i6uWURECUpU4FRqGuYxU-87" value="" style="html=1;overflow=block;blockSpacing=1;whiteSpace=wrap;ellipse;fontSize=13;spacing=3.8;rounded=1;absoluteArcSize=1;arcSize=9;strokeWidth=NaN;lucidId=CJNUZI7gOneL;fillColor=#e1d5e7;strokeColor=#9673a6;" parent="1" vertex="1">
          <mxGeometry x="278" y="690" width="30" height="30" as="geometry" />
        </mxCell>
        <mxCell id="i6uWURECUpU4FRqGuYxU-88" value="" style="html=1;overflow=block;blockSpacing=1;whiteSpace=wrap;ellipse;fontSize=13;spacing=3.8;rounded=1;absoluteArcSize=1;arcSize=9;strokeWidth=NaN;lucidId=FJNUC.1YoNQW;fillColor=#e1d5e7;strokeColor=#9673a6;" parent="1" vertex="1">
          <mxGeometry x="390" y="690" width="30" height="30" as="geometry" />
        </mxCell>
        <mxCell id="i6uWURECUpU4FRqGuYxU-89" value="" style="html=1;overflow=block;blockSpacing=1;whiteSpace=wrap;ellipse;fontSize=13;spacing=3.8;rounded=1;absoluteArcSize=1;arcSize=9;strokeWidth=NaN;lucidId=IJNUFCWo_2yS;fillColor=#e1d5e7;strokeColor=#9673a6;" parent="1" vertex="1">
          <mxGeometry x="446" y="693" width="30" height="30" as="geometry" />
        </mxCell>
        <mxCell id="i6uWURECUpU4FRqGuYxU-90" value="" style="html=1;overflow=block;blockSpacing=1;whiteSpace=wrap;ellipse;fontSize=13;spacing=3.8;rounded=1;absoluteArcSize=1;arcSize=9;strokeWidth=NaN;lucidId=NJNUZU_3nXaM;fillColor=#e1d5e7;strokeColor=#9673a6;" parent="1" vertex="1">
          <mxGeometry x="334" y="690" width="30" height="30" as="geometry" />
        </mxCell>
        <mxCell id="i6uWURECUpU4FRqGuYxU-91" value="" style="html=1;jettySize=18;whiteSpace=wrap;fontSize=13;strokeOpacity=100;strokeWidth=0.8;rounded=1;arcSize=12;edgeStyle=orthogonalEdgeStyle;startArrow=none;endArrow=block;endFill=1;exitX=0.5;exitY=-0.025;exitPerimeter=0;entryX=0.5;entryY=1.025;entryPerimeter=0;lucidId=ZJNUVTZP8HJd;" parent="1" source="i6uWURECUpU4FRqGuYxU-87" target="i6uWURECUpU4FRqGuYxU-79" edge="1">
          <mxGeometry width="100" height="100" relative="1" as="geometry">
            <Array as="points" />
          </mxGeometry>
        </mxCell>
        <mxCell id="i6uWURECUpU4FRqGuYxU-92" value="" style="html=1;overflow=block;blockSpacing=1;whiteSpace=wrap;ellipse;fontSize=13;spacing=3.8;rounded=1;absoluteArcSize=1;arcSize=9;strokeWidth=NaN;lucidId=8JNU2HWx3V7o;" parent="1" vertex="1">
          <mxGeometry x="345" y="620" width="30" height="30" as="geometry" />
        </mxCell>
        <mxCell id="i6uWURECUpU4FRqGuYxU-93" value="" style="html=1;overflow=block;blockSpacing=1;whiteSpace=wrap;ellipse;fontSize=13;spacing=3.8;rounded=1;absoluteArcSize=1;arcSize=9;strokeWidth=NaN;lucidId=uKNUNis~nsIp;fillColor=#e1d5e7;strokeColor=#9673a6;" parent="1" vertex="1">
          <mxGeometry x="193" y="690" width="30" height="30" as="geometry" />
        </mxCell>
        <mxCell id="i6uWURECUpU4FRqGuYxU-94" value="" style="html=1;jettySize=18;whiteSpace=wrap;fontSize=13;strokeOpacity=100;strokeWidth=0.8;rounded=1;arcSize=12;edgeStyle=orthogonalEdgeStyle;startArrow=none;endArrow=block;endFill=1;exitX=0.5;exitY=1.025;exitPerimeter=0;entryX=0.5;entryY=-0.025;entryPerimeter=0;lucidId=XKNU.VTja-bR;" parent="1" source="i6uWURECUpU4FRqGuYxU-86" target="i6uWURECUpU4FRqGuYxU-83" edge="1">
          <mxGeometry width="100" height="100" relative="1" as="geometry">
            <Array as="points" />
          </mxGeometry>
        </mxCell>
        <mxCell id="i6uWURECUpU4FRqGuYxU-95" value="" style="html=1;jettySize=18;whiteSpace=wrap;fontSize=13;strokeOpacity=100;strokeWidth=0.8;rounded=1;arcSize=12;edgeStyle=orthogonalEdgeStyle;startArrow=none;endArrow=block;endFill=1;exitX=0.5;exitY=-0.025;exitPerimeter=0;entryX=0.5;entryY=1.025;entryPerimeter=0;lucidId=3KNUvAql-q5-;" parent="1" source="i6uWURECUpU4FRqGuYxU-78" target="i6uWURECUpU4FRqGuYxU-77" edge="1">
          <mxGeometry width="100" height="100" relative="1" as="geometry">
            <Array as="points" />
          </mxGeometry>
        </mxCell>
        <mxCell id="i6uWURECUpU4FRqGuYxU-96" value="" style="html=1;jettySize=18;whiteSpace=wrap;fontSize=13;strokeOpacity=100;strokeWidth=0.8;rounded=1;arcSize=12;edgeStyle=orthogonalEdgeStyle;startArrow=none;endArrow=block;endFill=1;exitX=1.025;exitY=0.5;exitPerimeter=0;entryX=-0.025;entryY=0.5;entryPerimeter=0;lucidId=6KNUF5rM6H2P;" parent="1" source="i6uWURECUpU4FRqGuYxU-78" target="i6uWURECUpU4FRqGuYxU-83" edge="1">
          <mxGeometry width="100" height="100" relative="1" as="geometry">
            <Array as="points" />
          </mxGeometry>
        </mxCell>
        <mxCell id="i6uWURECUpU4FRqGuYxU-97" value="" style="html=1;jettySize=18;whiteSpace=wrap;fontSize=13;strokeOpacity=100;strokeWidth=0.8;rounded=1;arcSize=12;edgeStyle=orthogonalEdgeStyle;startArrow=none;endArrow=block;endFill=1;exitX=1.025;exitY=0.5;exitPerimeter=0;entryX=-0.025;entryY=0.5;entryPerimeter=0;lucidId=9KNUcalCcJ9C;" parent="1" source="i6uWURECUpU4FRqGuYxU-83" target="i6uWURECUpU4FRqGuYxU-84" edge="1">
          <mxGeometry width="100" height="100" relative="1" as="geometry">
            <Array as="points" />
          </mxGeometry>
        </mxCell>
        <mxCell id="i6uWURECUpU4FRqGuYxU-98" value="" style="html=1;jettySize=18;whiteSpace=wrap;fontSize=13;strokeOpacity=100;strokeWidth=0.8;rounded=1;arcSize=12;edgeStyle=orthogonalEdgeStyle;startArrow=none;endArrow=block;endFill=1;exitX=1.025;exitY=0.5;exitPerimeter=0;entryX=-0.025;entryY=0.5;entryPerimeter=0;lucidId=ALNUY8Tr6RZr;" parent="1" source="i6uWURECUpU4FRqGuYxU-77" target="i6uWURECUpU4FRqGuYxU-93" edge="1">
          <mxGeometry width="100" height="100" relative="1" as="geometry">
            <Array as="points" />
          </mxGeometry>
        </mxCell>
        <mxCell id="i6uWURECUpU4FRqGuYxU-99" value="" style="html=1;jettySize=18;whiteSpace=wrap;fontSize=13;strokeOpacity=100;strokeWidth=0.8;rounded=1;arcSize=12;edgeStyle=orthogonalEdgeStyle;startArrow=none;endArrow=block;endFill=1;exitX=1.025;exitY=0.5;exitPerimeter=0;entryX=-0.025;entryY=0.5;entryPerimeter=0;lucidId=BLNU4aeOQOa4;" parent="1" source="i6uWURECUpU4FRqGuYxU-93" target="i6uWURECUpU4FRqGuYxU-86" edge="1">
          <mxGeometry width="100" height="100" relative="1" as="geometry">
            <Array as="points" />
          </mxGeometry>
        </mxCell>
        <mxCell id="i6uWURECUpU4FRqGuYxU-100" value="" style="html=1;jettySize=18;whiteSpace=wrap;fontSize=13;strokeOpacity=100;strokeWidth=0.8;rounded=1;arcSize=12;edgeStyle=orthogonalEdgeStyle;startArrow=none;endArrow=block;endFill=1;exitX=1.025;exitY=0.5;exitPerimeter=0;entryX=-0.025;entryY=0.515;entryPerimeter=0;lucidId=ELNUVsJ60zDh;" parent="1" source="i6uWURECUpU4FRqGuYxU-86" target="i6uWURECUpU4FRqGuYxU-87" edge="1">
          <mxGeometry width="100" height="100" relative="1" as="geometry">
            <Array as="points" />
          </mxGeometry>
        </mxCell>
        <mxCell id="i6uWURECUpU4FRqGuYxU-101" value="" style="html=1;jettySize=18;whiteSpace=wrap;fontSize=13;strokeOpacity=100;strokeWidth=0.8;rounded=1;arcSize=12;edgeStyle=orthogonalEdgeStyle;startArrow=none;endArrow=block;endFill=1;exitX=1.025;exitY=0.5;exitPerimeter=0;entryX=-0.023;entryY=0.485;entryPerimeter=0;lucidId=GLNUEoiUIHaU;" parent="1" source="i6uWURECUpU4FRqGuYxU-87" target="i6uWURECUpU4FRqGuYxU-90" edge="1">
          <mxGeometry width="100" height="100" relative="1" as="geometry">
            <Array as="points" />
          </mxGeometry>
        </mxCell>
        <mxCell id="i6uWURECUpU4FRqGuYxU-102" value="" style="html=1;jettySize=18;whiteSpace=wrap;fontSize=13;strokeOpacity=100;strokeWidth=0.8;rounded=1;arcSize=12;edgeStyle=orthogonalEdgeStyle;startArrow=none;endArrow=block;endFill=1;exitX=1.025;exitY=0.5;exitPerimeter=0;entryX=-0.025;entryY=0.5;entryPerimeter=0;lucidId=JLNUfP-gd0nl;" parent="1" source="i6uWURECUpU4FRqGuYxU-90" target="i6uWURECUpU4FRqGuYxU-88" edge="1">
          <mxGeometry width="100" height="100" relative="1" as="geometry">
            <Array as="points" />
          </mxGeometry>
        </mxCell>
        <mxCell id="i6uWURECUpU4FRqGuYxU-103" value="" style="html=1;jettySize=18;whiteSpace=wrap;fontSize=13;strokeOpacity=100;strokeWidth=0.8;rounded=1;arcSize=12;edgeStyle=orthogonalEdgeStyle;startArrow=none;endArrow=block;endFill=1;exitX=1.025;exitY=0.5;exitPerimeter=0;entryX=-0.016;entryY=0.425;entryPerimeter=0;lucidId=MLNU40LICruX;" parent="1" source="i6uWURECUpU4FRqGuYxU-88" target="i6uWURECUpU4FRqGuYxU-89" edge="1">
          <mxGeometry width="100" height="100" relative="1" as="geometry">
            <Array as="points" />
          </mxGeometry>
        </mxCell>
        <mxCell id="i6uWURECUpU4FRqGuYxU-104" value="" style="html=1;jettySize=18;whiteSpace=wrap;fontSize=13;strokeOpacity=100;strokeWidth=0.8;rounded=1;arcSize=12;edgeStyle=orthogonalEdgeStyle;startArrow=none;endArrow=block;endFill=1;exitX=1.025;exitY=0.5;exitPerimeter=0;entryX=-0.025;entryY=0.5;entryPerimeter=0;lucidId=pNNURmhu5itX;" parent="1" source="i6uWURECUpU4FRqGuYxU-79" target="i6uWURECUpU4FRqGuYxU-92" edge="1">
          <mxGeometry width="100" height="100" relative="1" as="geometry">
            <Array as="points" />
          </mxGeometry>
        </mxCell>
        <mxCell id="i6uWURECUpU4FRqGuYxU-105" value="" style="html=1;jettySize=18;whiteSpace=wrap;fontSize=13;strokeOpacity=100;strokeWidth=0.8;rounded=1;arcSize=12;edgeStyle=orthogonalEdgeStyle;startArrow=none;endArrow=block;endFill=1;exitX=1.025;exitY=0.5;exitPerimeter=0;entryX=-0.025;entryY=0.5;entryPerimeter=0;lucidId=rNNUPd7ZybOz;" parent="1" source="i6uWURECUpU4FRqGuYxU-92" target="i6uWURECUpU4FRqGuYxU-85" edge="1">
          <mxGeometry width="100" height="100" relative="1" as="geometry">
            <Array as="points" />
          </mxGeometry>
        </mxCell>
        <mxCell id="i6uWURECUpU4FRqGuYxU-106" value="" style="html=1;jettySize=18;whiteSpace=wrap;fontSize=13;strokeOpacity=100;strokeWidth=0.8;rounded=1;arcSize=12;edgeStyle=orthogonalEdgeStyle;startArrow=none;endArrow=block;endFill=1;exitX=0.5;exitY=1.025;exitPerimeter=0;entryX=0.5;entryY=-0.025;entryPerimeter=0;lucidId=wNNUzGVIbJo-;" parent="1" source="i6uWURECUpU4FRqGuYxU-85" target="i6uWURECUpU4FRqGuYxU-89" edge="1">
          <mxGeometry width="100" height="100" relative="1" as="geometry">
            <Array as="points" />
          </mxGeometry>
        </mxCell>
        <mxCell id="i6uWURECUpU4FRqGuYxU-107" value="" style="html=1;jettySize=18;whiteSpace=wrap;fontSize=13;strokeOpacity=100;strokeWidth=0.8;rounded=1;arcSize=12;edgeStyle=orthogonalEdgeStyle;startArrow=none;endArrow=block;endFill=1;exitX=1.025;exitY=0.5;exitPerimeter=0;entryX=0.5;entryY=1.025;entryPerimeter=0;lucidId=ZNNUpSKD~Wlf;" parent="1" source="i6uWURECUpU4FRqGuYxU-89" target="i6uWURECUpU4FRqGuYxU-108" edge="1">
          <mxGeometry width="100" height="100" relative="1" as="geometry">
            <Array as="points" />
          </mxGeometry>
        </mxCell>
        <mxCell id="i6uWURECUpU4FRqGuYxU-110" style="edgeStyle=orthogonalEdgeStyle;rounded=0;orthogonalLoop=1;jettySize=auto;html=1;entryX=0.5;entryY=0;entryDx=0;entryDy=0;" parent="1" source="i6uWURECUpU4FRqGuYxU-108" target="i6uWURECUpU4FRqGuYxU-84" edge="1">
          <mxGeometry relative="1" as="geometry" />
        </mxCell>
        <mxCell id="i6uWURECUpU4FRqGuYxU-112" style="edgeStyle=orthogonalEdgeStyle;rounded=0;orthogonalLoop=1;jettySize=auto;html=1;entryX=0;entryY=0.5;entryDx=0;entryDy=0;" parent="1" source="i6uWURECUpU4FRqGuYxU-108" target="i6uWURECUpU4FRqGuYxU-111" edge="1">
          <mxGeometry relative="1" as="geometry" />
        </mxCell>
        <mxCell id="i6uWURECUpU4FRqGuYxU-108" value="" style="html=1;overflow=block;blockSpacing=1;whiteSpace=wrap;ellipse;fontSize=13;spacing=3.8;rounded=1;absoluteArcSize=1;arcSize=9;strokeWidth=NaN;lucidId=1NNU40M5787t;fillColor=#d5e8d4;strokeColor=#82b366;" parent="1" vertex="1">
          <mxGeometry x="495" y="557.5" width="30" height="30" as="geometry" />
        </mxCell>
        <mxCell id="i6uWURECUpU4FRqGuYxU-109" value="Release 1.1.0" style="html=1;overflow=block;blockSpacing=1;whiteSpace=wrap;fontSize=16.7;spacing=0;rounded=1;absoluteArcSize=1;arcSize=9;strokeWidth=NaN;lucidId=UGNUexd0UVxA;fillColor=#d5e8d4;strokeColor=#82b366;" parent="1" vertex="1">
          <mxGeometry x="67.5" y="550" width="75" height="45" as="geometry" />
        </mxCell>
        <mxCell id="i6uWURECUpU4FRqGuYxU-111" value="" style="html=1;overflow=block;blockSpacing=1;whiteSpace=wrap;ellipse;fontSize=13;spacing=3.8;rounded=1;absoluteArcSize=1;arcSize=9;strokeWidth=NaN;lucidId=IJNUFCWo_2yS;fillColor=#e1d5e7;strokeColor=#9673a6;" parent="1" vertex="1">
          <mxGeometry x="590" y="690.5" width="30" height="30" as="geometry" />
        </mxCell>
        <mxCell id="i6uWURECUpU4FRqGuYxU-114" value="" style="html=1;overflow=block;blockSpacing=1;whiteSpace=wrap;container=1;pointerEvents=0;collapsible=0;recursiveResize=0;fontSize=13;spacing=0;strokeOpacity=100;fillOpacity=100;rounded=1;absoluteArcSize=1;arcSize=9;strokeWidth=1.5;lucidId=wyNUC7PQDIvv;" parent="1" vertex="1">
          <mxGeometry x="960" y="690" width="240" height="160" as="geometry" />
        </mxCell>
        <mxCell id="i6uWURECUpU4FRqGuYxU-115" value="APP" style="html=1;overflow=block;blockSpacing=1;whiteSpace=wrap;shape=process;fontSize=16.7;spacing=3.8;rounded=1;absoluteArcSize=1;arcSize=9;strokeWidth=NaN;lucidId=wyNUaIjTV-_K;fillColor=#fff2cc;strokeColor=#d6b656;" parent="1" vertex="1">
          <mxGeometry x="1020" y="750" width="120" height="60" as="geometry" />
        </mxCell>
      </root>
    </mxGraphModel>
  </diagram>
</mxfile>
